<svg version="1.1" id="Layer_1" xmlns="http://www.w3.org/2000/svg" xmlns:xlink="http://www.w3.org/1999/xlink" x="0px" y="0px"
	 width="100%" viewBox="0 0 1024 544" enable-background="new 0 0 1024 544" xml:space="preserve">
<path fill="#000000" opacity="1.000000" stroke="none" 
	d="
M404.171356,313.994202 
	C404.176910,317.824829 404.056335,321.162811 404.219543,324.486816 
	C404.391998,327.999298 402.819122,329.206207 399.438293,329.084351 
	C394.780121,328.916443 390.098846,328.856903 385.449677,329.129547 
	C381.223816,329.377319 379.853546,327.599152 379.991516,323.564667 
	C380.503693,308.587006 379.425354,293.590546 380.518402,278.609802 
	C380.741150,275.556854 381.112854,272.361511 379.887909,269.210754 
	C377.399506,270.045990 377.138062,272.257111 376.184967,273.875153 
	C368.157043,287.503906 360.200012,301.174469 352.175995,314.805542 
	C348.659576,320.779236 337.620880,320.395752 334.057800,314.314331 
	C325.145081,299.102234 316.154297,283.935822 306.228058,268.887146 
	C306.228058,272.936554 306.230316,276.985931 306.227661,281.035339 
	C306.218353,295.195740 306.095123,309.357483 306.268890,323.515625 
	C306.317780,327.501190 305.264709,329.357727 300.967987,329.116058 
	C296.152802,328.845184 291.308563,329.023773 286.478668,329.106659 
	C283.563416,329.156677 282.410156,328.088104 282.424774,324.959137 
	C282.571716,293.474762 282.659912,261.989380 282.523987,230.505295 
	C282.505127,226.134583 283.803589,225.402008 288.066345,224.772293 
	C301.133179,222.842041 308.586670,227.906799 314.454285,239.734207 
	C322.123718,255.193680 332.001434,269.557373 340.921173,284.397247 
	C341.598450,285.524078 342.109863,286.792358 343.609497,287.135162 
	C345.482117,286.267242 346.015167,284.408112 346.923035,282.871765 
	C357.511322,264.953339 368.142426,247.059555 378.591797,229.060333 
	C380.321960,226.080093 382.307129,224.751236 385.758148,224.975296 
	C389.572601,225.222977 393.417419,224.999100 397.249023,224.986526 
	C404.004822,224.964386 404.097290,225.033951 404.117676,232.031906 
	C404.142395,240.528076 404.108795,249.024384 404.114960,257.520630 
	C404.128448,276.178864 404.151123,294.837128 404.171356,313.994202 
z"/>
<path fill="#000000" opacity="1.000000" stroke="none" 
	d="
M559.074524,320.167664 
	C549.033264,326.534271 538.149780,328.799896 526.883484,329.052917 
	C512.895264,329.367096 498.893463,329.026001 484.899750,329.174530 
	C480.894684,329.217041 479.229858,328.129791 479.469727,323.755554 
	C480.051178,313.152405 478.330109,302.453949 480.686279,291.914185 
	C483.288422,280.274292 489.535095,271.230225 499.937500,265.201874 
	C500.507080,264.871796 501.134369,264.618958 501.764099,264.425537 
	C502.030365,264.343750 502.372559,264.509216 502.671722,264.560791 
	C497.934662,278.464050 501.197632,292.807404 500.283752,306.913544 
	C500.126221,309.345062 501.289459,310.678711 503.838440,310.612976 
	C513.807373,310.355682 523.795471,311.373901 533.744690,309.685059 
	C553.596375,306.315308 565.402893,285.754852 558.288330,266.914398 
	C554.619995,257.200043 547.247559,252.303604 537.426208,251.589828 
	C528.994080,250.977020 520.476807,251.222641 511.982483,251.851700 
	C498.902832,252.820328 488.812866,258.458984 481.881958,269.652496 
	C481.485168,270.293365 481.238800,271.248993 479.973419,271.110962 
	C478.260864,269.346893 479.315643,267.036499 479.260864,265.049438 
	C479.026947,256.565094 478.640259,248.058350 479.583221,239.591019 
	C480.497711,231.379379 488.228882,226.468384 495.921021,229.041626 
	C498.800537,230.004913 498.106445,232.394501 498.241364,234.455536 
	C498.562317,239.358597 501.180908,242.272339 505.116821,241.747665 
	C509.063599,241.221558 511.008911,238.577179 510.813019,234.787216 
	C510.553345,229.764542 512.971741,228.483871 517.491333,228.781662 
	C521.636719,229.054810 525.823547,228.922852 529.980713,228.726837 
	C533.731018,228.549988 535.637024,229.824127 535.332214,233.858124 
	C535.088379,237.085236 536.268677,239.844711 539.313171,241.304688 
	C543.478516,243.302155 547.421753,240.573044 547.931580,235.499115 
	C548.481445,230.026749 548.891357,229.880280 553.881775,231.870499 
	C574.736328,240.187531 583.173279,263.598816 580.984070,282.872559 
	C579.228638,298.328003 572.759949,311.208466 559.074524,320.167664 
z"/>
<path fill="#000000" opacity="1.000000" stroke="none" 
	d="
M586.726074,298.930908 
	C584.133545,275.623688 594.368530,259.583160 615.355347,253.571198 
	C631.047974,249.075836 649.711914,254.851837 659.053223,267.094666 
	C668.707947,279.747986 669.575806,299.809448 660.624878,313.645142 
	C652.704651,325.887604 640.755737,330.983368 626.568481,330.857300 
	C605.426086,330.669464 591.853333,319.750549 586.726074,298.930908 
M612.748474,305.685577 
	C617.058655,310.686462 622.382019,313.350037 629.050720,312.068420 
	C642.699768,309.445221 649.034485,293.160248 641.690308,279.835144 
	C638.396912,273.859772 633.007263,271.212891 626.498535,271.043854 
	C620.075378,270.877075 614.771851,273.615509 611.542725,279.264191 
	C606.583374,287.939453 606.818176,296.643921 612.748474,305.685577 
z"/>
<path fill="#000000" opacity="1.000000" stroke="none" 
	d="
M739.598511,262.402954 
	C746.158386,270.143005 746.156982,270.140778 737.979004,275.317932 
	C736.995117,275.940826 735.955139,276.509308 735.080200,277.264160 
	C731.140320,280.662872 728.259644,280.613495 724.406921,276.263733 
	C716.676758,267.536438 701.803528,270.038727 696.506348,280.449585 
	C693.143188,287.059357 693.055054,294.022400 695.690735,300.782684 
	C700.657959,313.522766 716.607239,316.316162 725.225952,305.745331 
	C728.252258,302.033569 730.328857,302.094330 733.745300,304.465515 
	C736.049866,306.065002 738.653992,307.292633 741.244751,308.406158 
	C745.237488,310.122223 745.418518,312.542816 743.125732,315.813538 
	C736.562317,325.176331 727.465332,329.708771 716.190796,330.752686 
	C698.154846,332.422668 682.286255,324.545166 675.547119,308.936981 
	C669.176941,294.183167 670.226501,279.367279 680.340576,266.533142 
	C690.474060,253.674210 704.795776,250.567871 720.355042,252.856491 
	C727.504700,253.908157 734.067444,256.901825 739.598511,262.402954 
z"/>
<path fill="#000000" opacity="1.000000" stroke="none" 
	d="
M443.075348,293.232239 
	C443.034821,303.695831 442.856812,313.691803 443.031433,323.681580 
	C443.104706,327.873596 441.461945,329.333099 437.425323,329.125732 
	C433.106079,328.903809 428.765045,328.996643 424.436829,329.096680 
	C421.554108,329.163300 420.074860,328.047455 420.073303,325.049713 
	C420.061554,302.397766 420.031097,279.745758 419.971313,257.093872 
	C419.964539,254.519867 421.097748,253.508926 423.642456,253.650177 
	C426.300232,253.797714 428.970551,253.729782 431.635437,253.736496 
	C440.471802,253.758743 440.471802,253.755356 442.089752,262.073914 
	C448.551117,255.803818 456.146545,252.690567 465.038300,252.521622 
	C468.040436,252.464584 469.458832,253.262787 469.285950,256.364197 
	C469.193420,258.024506 469.327423,259.696503 469.264252,261.359619 
	C469.132050,264.840332 470.436676,268.821747 468.649750,271.679016 
	C466.518341,275.087128 462.201752,272.650696 458.886108,273.185364 
	C449.696075,274.667358 443.831268,281.696075 443.075348,293.232239 
z"/>
<path fill="#000000" opacity="1.000000" stroke="none" 
	d="
M634.869507,231.097382 
	C628.922791,224.126389 624.886230,217.046005 624.456421,207.651520 
	C623.698792,191.093903 641.870239,180.947937 656.254272,188.874420 
	C660.396362,191.157013 663.246582,191.397095 667.484009,188.960449 
	C676.862610,183.567581 687.402161,185.776245 694.684937,193.721176 
	C701.116882,200.737976 701.463989,213.407928 695.318176,223.115494 
	C689.993713,231.525650 682.591370,238.020248 675.116699,244.416321 
	C671.829651,247.229050 668.377930,249.859634 665.211182,252.799393 
	C662.684387,255.145081 660.586670,254.731430 658.251892,252.651260 
	C650.423645,245.676651 642.138428,239.201279 634.869507,231.097382 
M679.930115,193.523422 
	C674.047729,192.876511 669.465881,195.630981 665.925293,199.771942 
	C662.612610,203.646332 660.556763,203.419205 657.535278,199.454559 
	C653.473999,194.125519 646.199158,192.252014 641.111694,194.504562 
	C631.374573,198.815842 628.524048,208.223190 634.314026,217.698395 
	C640.671143,228.101608 649.863281,235.821350 659.240662,243.324951 
	C660.808838,244.579758 662.475647,245.101715 664.215393,243.665405 
	C673.460815,236.032318 682.970642,228.555145 689.208191,218.096848 
	C695.548950,207.465302 692.088196,198.225388 679.930115,193.523422 
z"/>
<path fill="#000000" opacity="1.000000" stroke="none" 
	d="
M521.155884,275.275635 
	C523.611206,273.021484 522.675354,270.367371 522.742554,267.984100 
	C522.860962,263.791229 525.577759,263.799255 528.581421,263.801636 
	C531.543884,263.803986 533.562439,264.143158 533.602234,268.086792 
	C533.673096,275.112244 533.940002,275.257477 541.084106,275.607147 
	C544.437805,275.771271 545.418579,277.377441 545.287109,280.343689 
	C545.158752,283.240204 546.027954,287.155182 541.495178,286.933868 
	C535.767761,286.654205 533.255188,288.446808 533.826843,294.476257 
	C534.233093,298.761108 530.802429,298.896393 527.659119,298.955719 
	C524.098572,299.022919 522.296997,297.383392 522.798035,293.789215 
	C523.526611,288.562378 521.435425,286.412384 516.168396,287.034302 
	C512.374390,287.482330 511.342926,285.413757 511.568695,281.859772 
	C511.779266,278.544739 511.429169,275.289490 516.309937,275.661957 
	C517.785339,275.774536 519.287659,275.533722 521.155884,275.275635 
z"/>
<path fill="#000000" opacity="1.000000" stroke="none" 
	d="
M567.596680,348.621521 
	C572.881470,347.487000 577.846497,347.392639 582.741638,348.389709 
	C587.922913,349.445038 590.009338,352.887878 588.339783,357.863159 
	C587.662170,359.882324 588.171326,361.188568 588.985413,362.903992 
	C591.703979,368.632172 589.616333,372.761566 583.261902,373.635010 
	C578.861023,374.239868 574.343140,374.014099 569.876404,374.108215 
	C567.965210,374.148529 566.555603,373.359802 566.659180,371.229401 
	C567.020386,363.802826 566.007812,356.340393 567.596680,348.621521 
M578.308899,368.782074 
	C580.327759,368.524872 583.373779,369.163147 583.301331,366.206848 
	C583.227417,363.191681 580.123901,363.400208 577.885925,363.307983 
	C576.010010,363.230743 573.565674,362.709076 573.215454,365.574585 
	C572.817566,368.830078 575.294312,368.725647 578.308899,368.782074 
M575.846924,357.931152 
	C578.238037,357.630890 581.444214,359.183014 582.367432,355.468384 
	C582.664307,354.273895 581.325806,353.474335 580.089233,353.373444 
	C577.869324,353.192230 575.336975,352.233887 573.665955,354.365875 
	C572.569397,355.764862 573.321960,357.156830 575.846924,357.931152 
z"/>
<path fill="#000000" opacity="1.000000" stroke="none" 
	d="
M705.752563,368.253448 
	C703.533813,365.596649 701.541260,363.215820 699.548706,360.834961 
	C699.106628,360.933014 698.664490,361.031036 698.222412,361.129089 
	C698.222412,364.190491 698.240112,367.252045 698.216064,370.313232 
	C698.200500,372.290375 697.808472,373.996887 695.293701,374.089874 
	C692.508972,374.192810 691.985168,372.413757 691.982727,370.192322 
	C691.976135,364.204132 691.967041,358.215881 691.993347,352.227783 
	C692.000427,350.606354 691.623962,348.665344 693.691711,347.987488 
	C695.805664,347.294495 697.547180,348.137238 698.990662,349.810242 
	C702.196777,353.525909 704.756958,357.830017 709.702148,361.760895 
	C709.702148,357.679565 709.739807,354.595062 709.690125,351.511963 
	C709.651367,349.107574 710.515686,347.662445 713.161072,347.826294 
	C715.798096,347.989655 715.664795,349.735565 715.669678,351.730682 
	C715.684387,357.704895 716.190613,363.679138 715.475952,369.648834 
	C715.289551,371.205627 716.217407,373.218445 714.052490,373.957245 
	C711.908447,374.688965 710.183594,373.733429 708.833313,371.995972 
	C707.915100,370.814575 706.932556,369.683167 705.752563,368.253448 
z"/>
<path fill="#000000" opacity="1.000000" stroke="none" 
	d="
M643.522156,349.238220 
	C649.668640,353.771606 651.659973,359.541351 649.535889,365.915283 
	C647.776978,371.193573 642.972168,374.479431 636.895569,374.559753 
	C630.083557,374.649841 625.087891,371.179169 622.886353,364.827026 
	C619.890015,356.181671 627.298218,347.015533 636.995972,347.423615 
	C639.156677,347.514526 641.279602,347.924652 643.522156,349.238220 
M629.160278,359.840332 
	C628.806580,363.475464 629.993713,366.512787 633.313416,368.120026 
	C635.763855,369.306427 638.425781,369.145996 640.807739,367.394806 
	C643.939331,365.092590 644.444763,361.926239 643.462769,358.545502 
	C642.559814,355.436768 640.255188,353.543243 636.930054,353.346649 
	C632.840027,353.104767 630.523926,355.412048 629.160278,359.840332 
z"/>
<path fill="#000000" opacity="1.000000" stroke="none" 
	d="
M535.983887,370.934265 
	C535.499084,373.589874 534.053772,374.347809 531.928711,373.944061 
	C529.731934,373.526672 529.730713,371.756622 529.725159,370.071136 
	C529.704834,363.931366 529.716248,357.791504 529.705078,351.651672 
	C529.701355,349.626434 530.195007,347.921997 532.621155,347.886719 
	C536.758545,347.826538 540.939880,347.408936 544.994202,348.578857 
	C550.158020,350.068878 553.581360,355.128357 551.420166,359.599945 
	C549.104187,364.391693 547.828674,368.546143 552.161194,372.899567 
	C547.348022,375.656708 545.198914,373.154114 543.162292,370.100830 
	C542.040771,368.419495 540.709900,366.904602 538.335022,367.219788 
	C536.340820,367.484406 536.228760,369.030914 535.983887,370.934265 
M541.711243,353.418274 
	C539.534912,353.432465 536.644775,352.173492 536.245239,355.791077 
	C536.026550,357.771790 535.159729,360.516663 537.966614,361.388947 
	C540.436523,362.156464 543.031311,361.690369 544.589905,359.207275 
	C546.291138,356.497009 544.725952,354.878571 541.711243,353.418274 
z"/>
<path fill="#000000" opacity="1.000000" stroke="none" 
	d="
M420.459595,355.778656 
	C424.398102,348.887939 430.210846,346.289185 437.349609,347.941467 
	C442.434479,349.118347 446.684906,354.209198 447.144653,359.809326 
	C447.586090,365.186005 445.994263,369.690521 441.047028,372.428955 
	C435.671417,375.404419 430.153259,375.447235 425.058472,371.976776 
	C420.601715,368.940887 418.737427,364.452759 419.584290,359.013489 
	C419.735840,358.039978 420.059875,357.093292 420.459595,355.778656 
M425.920837,363.490967 
	C427.891388,367.156067 430.592346,369.638733 435.100006,368.583618 
	C438.100037,367.881348 440.032776,365.847565 440.607910,362.808136 
	C441.202911,359.663574 440.479156,356.828674 437.793182,354.812286 
	C435.339203,352.970032 432.562195,352.378632 429.892944,354.067841 
	C426.778839,356.038574 424.746765,358.781738 425.920837,363.490967 
z"/>
<path fill="#000000" opacity="1.000000" stroke="none" 
	d="
M391.675415,365.925659 
	C391.680206,360.948944 391.745209,356.459045 391.666687,351.971649 
	C391.621124,349.366913 392.503296,347.833252 395.337585,347.843292 
	C399.487640,347.858002 403.653534,347.519043 407.738098,348.609741 
	C413.566681,350.166229 417.274109,354.980347 417.298309,361.051239 
	C417.322571,367.135071 413.659546,371.809143 407.689880,373.414124 
	C404.917023,374.159668 402.095825,374.126160 399.271393,374.144287 
	C391.680939,374.193085 391.680908,374.189270 391.675415,365.925659 
M408.808105,355.733521 
	C406.150879,353.117218 402.677948,352.374847 399.580505,353.723175 
	C396.527557,355.052094 397.859558,358.702026 397.439117,361.378571 
	C397.413605,361.541168 397.407501,361.716675 397.439270,361.876892 
	C397.889526,364.149872 396.172119,367.495575 399.334290,368.417969 
	C402.719421,369.405365 406.456146,368.986115 409.006287,366.000092 
	C411.583282,362.982544 411.450165,359.618469 408.808105,355.733521 
z"/>
<path fill="#000000" opacity="1.000000" stroke="none" 
	d="
M506.207153,373.381287 
	C498.731384,368.732544 496.263641,362.252716 499.113983,355.599548 
	C501.711395,349.536713 508.900452,346.201477 515.726257,347.892578 
	C522.199951,349.496429 526.625366,355.775085 526.002563,362.472321 
	C525.152832,371.610016 517.177551,376.151123 506.207153,373.381287 
M510.883636,368.707336 
	C511.711517,368.706543 512.565552,368.839142 513.362854,368.682678 
	C517.562439,367.858673 520.422974,363.425171 519.436646,359.367981 
	C518.399780,355.102692 513.958862,352.332642 509.964081,353.459290 
	C505.617645,354.685181 503.182251,359.492493 504.790894,363.764984 
	C505.733429,366.268341 507.647278,367.760712 510.883636,368.707336 
z"/>
<path fill="#000000" opacity="1.000000" stroke="none" 
	d="
M606.888794,374.380066 
	C597.270020,373.863678 592.621643,369.325226 592.622253,360.883911 
	C592.622742,353.622589 598.007690,347.933197 605.297363,347.492065 
	C613.208191,347.013397 619.388367,352.095490 620.185486,359.735016 
	C620.993469,367.477661 616.075378,373.074432 606.888794,374.380066 
M602.209106,354.529755 
	C601.416992,355.370941 600.495056,356.124542 599.857178,357.069794 
	C597.958557,359.883118 598.291626,362.689758 600.163208,365.400635 
	C602.055359,368.141266 604.690613,369.313721 607.914612,368.591309 
	C611.169739,367.861908 612.960510,365.435577 613.566345,362.332550 
	C614.772034,356.157257 609.510925,352.195862 602.209106,354.529755 
z"/>
<path fill="#000000" opacity="1.000000" stroke="none" 
	d="
M675.916260,370.106567 
	C676.851868,371.290588 677.683838,372.164124 677.172424,373.605713 
	C672.123230,375.798706 669.681946,372.334656 667.036377,369.026520 
	C665.892944,367.596802 665.226990,364.931702 662.673340,365.735352 
	C660.445923,366.436310 660.283691,368.686768 660.258301,370.750427 
	C660.235291,372.616333 659.639771,374.029236 657.468445,374.107361 
	C655.188782,374.189392 654.036743,372.961243 654.013733,370.795563 
	C653.943115,364.151489 653.938965,357.506378 653.956543,350.861816 
	C653.961792,348.884552 654.962524,347.809967 657.046814,347.818665 
	C659.057800,347.827057 660.189148,348.699402 660.209656,350.771606 
	C660.230896,352.919556 660.214355,355.067841 660.214355,358.030640 
	C663.746399,356.080719 665.802185,353.543579 667.799072,351.096619 
	C670.170654,348.190521 672.761475,346.874969 676.661316,348.468109 
	C676.052551,352.186096 672.858154,353.810913 670.687500,356.064789 
	C668.468262,358.369202 667.756226,360.206421 670.139709,362.801208 
	C672.154175,364.994232 673.847900,367.481842 675.916260,370.106567 
z"/>
<path fill="#000000" opacity="1.000000" stroke="none" 
	d="
M741.030762,360.146057 
	C744.952209,362.523163 745.420715,370.092041 742.206909,372.424957 
	C736.433044,376.616211 725.938538,374.838379 721.953979,368.993896 
	C717.531921,362.507782 719.427246,353.297119 726.183716,349.363983 
	C730.828064,346.660339 735.800781,347.075928 740.616455,348.905426 
	C742.356689,349.566559 744.684082,350.611511 743.413452,353.243927 
	C742.252014,355.650024 740.410034,355.777679 738.040466,354.426208 
	C733.963379,352.100922 730.158569,353.012421 727.504761,356.751282 
	C725.241089,359.940491 725.664246,363.361694 728.310913,366.354095 
	C730.275085,368.574799 732.814331,369.159485 735.577332,368.493713 
	C738.252319,367.849152 737.743896,365.490570 737.821472,363.572327 
	C737.898499,361.670013 738.524963,360.345215 741.030762,360.146057 
z"/>
<path fill="#000000" opacity="1.000000" stroke="none" 
	d="
M291.456787,357.915466 
	C293.712860,357.969452 295.544556,357.958191 297.372192,358.038696 
	C298.880951,358.105133 299.924072,358.827301 299.993652,360.453369 
	C300.074188,362.336792 298.968353,363.159637 297.221313,363.222992 
	C295.558960,363.283295 293.893066,363.237823 292.229767,363.280426 
	C290.376678,363.327911 288.372742,363.227570 288.289459,365.909241 
	C288.207001,368.564850 290.081665,368.715149 292.017059,368.735107 
	C294.180237,368.757355 296.343628,368.761810 298.506927,368.773438 
	C300.394318,368.783569 301.849152,369.420624 301.855621,371.566620 
	C301.861420,373.492645 300.500214,374.091217 298.831238,374.101776 
	C294.338562,374.130249 289.845490,374.130249 285.352722,374.110809 
	C282.750671,374.099579 281.930023,372.458954 281.925110,370.175995 
	C281.911896,364.018463 281.951538,357.860657 281.902985,351.703461 
	C281.881653,348.999054 283.083160,347.725555 285.809113,347.771210 
	C289.802094,347.838074 293.796753,347.799713 297.790192,347.848480 
	C299.513855,347.869507 301.288452,348.005646 301.312836,350.361847 
	C301.339813,352.965637 299.482056,353.143311 297.524078,353.143982 
	C295.527222,353.144653 293.529297,353.145569 291.533905,353.210358 
	C290.196564,353.253784 288.732788,353.288757 288.442078,355.036652 
	C288.116119,356.996765 289.314117,357.711456 291.456787,357.915466 
z"/>
<path fill="#000000" opacity="1.000000" stroke="none" 
	d="
M322.772949,354.252686 
	C325.660919,360.615021 328.364105,366.639893 331.161316,372.874329 
	C327.938110,374.914581 325.747284,374.434113 323.837311,371.515808 
	C320.900085,367.027863 313.163940,366.912170 310.191772,371.481354 
	C308.501373,374.080109 306.709442,374.724579 303.805847,373.520172 
	C303.199402,369.952209 305.505219,367.256226 306.694244,364.307281 
	C308.367889,360.156616 310.435883,356.165436 312.321289,352.099548 
	C313.296936,349.995483 313.988190,347.752045 317.058563,347.774323 
	C320.114624,347.796448 320.886658,349.885223 321.681641,352.142212 
	C321.900208,352.762665 322.281555,353.325806 322.772949,354.252686 
M314.517609,362.680145 
	C316.147339,364.127899 317.759583,363.515930 319.585480,362.665100 
	C319.173584,360.254028 318.455627,358.084320 316.933838,355.882782 
	C315.597107,358.077179 314.623962,359.918427 314.517609,362.680145 
z"/>
<path fill="#000000" opacity="1.000000" stroke="none" 
	d="
M345.986694,365.676208 
	C342.829407,364.320984 339.865295,363.290771 336.941559,362.156342 
	C333.831299,360.949493 332.001648,358.619873 332.239899,355.276245 
	C332.466522,352.095520 334.095642,349.641327 337.343262,348.573456 
	C341.265778,347.283600 345.161011,347.268005 349.058899,348.686829 
	C350.822052,349.328583 352.026794,350.253754 351.252441,352.372223 
	C350.585846,354.195801 349.275940,354.248688 347.616394,353.852936 
	C344.811127,353.184021 340.712433,351.447784 339.859589,355.062653 
	C339.004364,358.687653 343.758331,358.129791 346.130371,358.984558 
	C350.234314,360.463440 353.597870,362.426453 353.053040,367.333954 
	C352.515503,372.175415 348.725769,373.680786 344.522430,374.226807 
	C341.187042,374.660156 337.875854,374.372345 334.760559,372.954132 
	C333.181274,372.235168 331.712585,371.334198 332.502167,369.200958 
	C333.354156,366.899017 334.979462,366.815063 336.908783,367.812622 
	C338.891296,368.837708 341.013336,369.169403 343.196838,368.880249 
	C344.854645,368.660706 346.673767,368.438812 345.986694,365.676208 
z"/>
<path fill="#000000" opacity="1.000000" stroke="none" 
	d="
M471.321960,366.881165 
	C474.743805,369.329987 473.480652,371.158478 470.950897,372.772247 
	C465.681335,376.133850 456.681152,374.743530 452.593933,369.971436 
	C448.357452,365.025085 448.395355,356.829010 452.677063,352.004608 
	C456.846191,347.307129 465.910645,346.044128 471.090057,349.457275 
	C472.522156,350.401001 474.039886,351.486176 473.031372,353.465820 
	C471.910614,355.665802 470.266205,355.660400 468.014587,354.667419 
	C461.272919,351.694275 455.987274,354.657074 456.036682,361.132965 
	C456.079590,366.753723 460.916992,370.121399 466.438660,368.411407 
	C467.994690,367.929596 469.143738,366.342529 471.321960,366.881165 
z"/>
<path fill="#000000" opacity="1.000000" stroke="none" 
	d="
M369.872070,363.266968 
	C368.621155,366.154785 369.171600,368.868286 368.819061,371.482880 
	C368.580444,373.252655 367.575165,374.093933 365.804047,374.090363 
	C364.275757,374.087311 362.878326,373.368011 363.028107,371.890076 
	C363.907379,363.214386 357.816620,357.584930 354.141418,350.896881 
	C353.842682,350.353271 353.775146,349.682678 353.608246,349.099304 
	C356.011688,347.984161 356.011688,347.984161 366.061401,357.175598 
	C370.831329,355.591553 369.632141,345.989380 378.062714,348.411957 
	C376.440460,354.117432 372.666077,358.209900 369.872070,363.266968 
z"/>
<path fill="#000000" opacity="1.000000" stroke="none" 
	d="
M482.014374,354.087769 
	C481.568329,353.725098 481.411316,353.668152 481.265137,353.590729 
	C479.118561,352.453705 474.415833,354.790894 475.056671,350.122131 
	C475.606659,346.115417 479.637726,348.080688 482.148560,347.898621 
	C485.942871,347.623505 489.772949,347.809906 493.587158,347.856201 
	C495.331543,347.877350 497.028320,348.186493 497.117340,350.432617 
	C497.205688,352.661438 495.671661,353.292694 493.837372,353.190338 
	C489.934509,352.972565 489.084869,355.133057 489.214600,358.491669 
	C489.361755,362.300598 489.229218,366.120453 489.214600,369.935547 
	C489.206512,372.049500 489.008301,374.024658 486.185822,374.101685 
	C483.058075,374.187073 482.895721,372.028473 482.809113,369.736084 
	C482.615662,364.619476 483.424927,359.469849 482.014374,354.087769 
z"/>
<path fill="#000000" opacity="1.000000" stroke="none" 
	d="
M509.255005,235.524139 
	C508.669128,238.844635 506.906189,240.389755 504.012573,240.112289 
	C500.841644,239.808243 500.199158,237.219116 500.066895,234.679825 
	C499.886932,231.224701 499.892975,227.745987 500.071259,224.290405 
	C500.217651,221.453110 501.756287,219.679779 504.816040,219.726578 
	C507.712128,219.770874 508.961975,221.638397 509.110504,224.188339 
	C509.321350,227.808609 509.243622,231.445694 509.255005,235.524139 
z"/>
<path fill="#000000" opacity="1.000000" stroke="none" 
	d="
M542.906982,219.699738 
	C545.067871,220.348206 546.037781,221.735413 546.099548,223.471375 
	C546.246521,227.601532 546.320923,231.747192 546.122803,235.872086 
	C545.996765,238.495987 544.374146,240.192993 541.597595,240.159790 
	C539.058350,240.129410 537.738342,238.488464 537.296753,236.129089 
	C536.462036,231.668900 537.404175,227.216309 537.625854,222.780273 
	C537.753174,220.233475 540.221313,219.653625 542.906982,219.699738 
z"/>
<path fill="#000000" opacity="1.000000" stroke="none" 
	d="
M680.647949,366.904999 
	C680.651855,361.585144 680.654785,356.753265 680.659363,351.921356 
	C680.661377,349.812195 680.773987,347.813721 683.674377,347.773560 
	C686.650574,347.732361 686.602356,349.592468 686.538940,351.814362 
	C686.372803,357.641418 686.446289,363.474945 686.318542,369.303619 
	C686.274536,371.310272 687.027832,374.022919 683.567444,374.048035 
	C680.206238,374.072418 680.741089,371.491241 680.639648,369.392029 
	C680.607544,368.727356 680.643188,368.059387 680.647949,366.904999 
z"/>
<path fill="#000000" opacity="1.000000" stroke="none" 
	d="
M666.904846,208.391785 
	C666.610718,212.977234 667.757263,215.579849 672.689819,215.210968 
	C675.474182,215.002731 677.047852,216.452530 676.513916,219.577835 
	C676.065491,222.203018 677.011230,225.786285 672.425964,225.334625 
	C668.288574,224.927094 666.645081,226.651962 666.974304,230.773987 
	C667.257751,234.321136 665.052612,235.279907 661.880920,235.233963 
	C658.867249,235.190308 656.421021,234.703033 656.775513,230.909119 
	C657.129456,227.121613 655.584717,225.153275 651.701111,225.414307 
	C647.725098,225.681534 646.934753,223.424561 647.085022,220.089066 
	C647.227844,216.919006 648.268555,214.905914 651.893066,215.424957 
	C655.305725,215.913681 656.886536,214.462250 656.789612,210.982620 
	C656.734192,208.996231 656.630066,206.604523 659.201660,206.127762 
	C661.886658,205.630020 664.901978,204.792648 666.904846,208.391785 
z"/>
</svg>